# xmcd
#
# Track frame offsets:
#	150
#	9260
#	19600
#	29557
#	48365
#	57247
#	74747
#	86012
#	99405
#	119632
#	130692
#	146982
#	159687
#	173775
#
# Disc length: 2634 seconds
#
# Revision: 1
# Processed by: cddbd v1.5PL3 Copyright (c) Steve Scherf et al.
# Submitted via: EasyCDDAExtractor 7.0.4.1
#
DISCID=c30a480e
DTITLE=Mezcal Brothers - Hold On Tight
DYEAR=1900
DGENRE=
TTITLE0=Hold On Tight
TTITLE1=Waitin' for You
TTITLE2=Heartaches
TTITLE3=7:10 Roll By
TTITLE4=Rockabye Baby
TTITLE5=Spanish Fly
TTITLE6=It's Over Now
TTITLE7=That Girl
TTITLE8=Cool Dance Baby
TTITLE9=I'm In Love with You
TTITLE10=You Ain't Nice
TTITLE11=When We Say Goodnight
TTITLE12=Lonesome Feeling
TTITLE13=Daddy's Gotta Go
EXTD=
EXTT0=
EXTT1=
EXTT2=
EXTT3=
EXTT4=
EXTT5=
EXTT6=
EXTT7=
EXTT8=
EXTT9=
EXTT10=
EXTT11=
EXTT12=
EXTT13=
PLAYORDER=
